<svg xmlns="http://www.w3.org/2000/svg" xmlns:xlink="http://www.w3.org/1999/xlink" width="50.632" height="76" viewBox="0 0 50.632 76">
  <defs>
    <clipPath id="clip-path">
      <rect id="Rectangle_629" data-name="Rectangle 629" width="50.632" height="76" fill="none" stroke="#707070" stroke-width="1.5"/>
    </clipPath>
  </defs>
  <g id="Group_12094" data-name="Group 12094" transform="translate(0 0)">
    <g id="Group_12093" data-name="Group 12093" transform="translate(0 0)" clip-path="url(#clip-path)">
      <path id="Path_11290" data-name="Path 11290" d="M56.792,17.271V78.847L33,78.633" transform="translate(-6.949 -3.637)" fill="none" stroke="#039" stroke-linecap="round" stroke-linejoin="round" stroke-width="1.5"/>
      <path id="Path_11291" data-name="Path 11291" d="M49.945,13.631H7.316A6.316,6.316,0,0,1,7.316,1h42.63" transform="translate(-0.211 -0.211)" fill="none" stroke="#039" stroke-linecap="round" stroke-linejoin="round" stroke-width="1.5"/>
      <path id="Path_11292" data-name="Path 11292" d="M49.945,93.316H7.316A6.334,6.334,0,0,1,1,87" transform="translate(-0.211 -18.319)" fill="none" stroke="#039" stroke-linecap="round" stroke-linejoin="round" stroke-width="1.5"/>
      <line id="Line_36" data-name="Line 36" y1="61.576" transform="translate(0.789 7.105)" fill="none" stroke="#039" stroke-linecap="round" stroke-linejoin="round" stroke-width="1.5"/>
      <path id="Path_11293" data-name="Path 11293" d="M61.316,13.631A6.316,6.316,0,1,1,61.316,1" transform="translate(-11.581 -0.211)" fill="none" stroke="#039" stroke-linecap="round" stroke-linejoin="round" stroke-width="1.5"/>
      <line id="Line_37" data-name="Line 37" y2="48.945" transform="translate(5.526 19.736)" fill="none" stroke="#039" stroke-linecap="round" stroke-linejoin="round" stroke-width="1.5"/>
      <path id="Path_11294" data-name="Path 11294" d="M20.407,60.909a12.666,12.666,0,0,1-1.667-4.047" transform="translate(-3.946 -11.973)" fill="none" stroke="#039" stroke-linecap="round" stroke-linejoin="round" stroke-width="1.5"/>
      <path id="Path_11295" data-name="Path 11295" d="M29.9,68.674a12.66,12.66,0,0,1-4.1-1.705" transform="translate(-5.433 -14.101)" fill="none" stroke="#039" stroke-linecap="round" stroke-linejoin="round" stroke-width="1.5"/>
      <path id="Path_11296" data-name="Path 11296" d="M42.085,67a12.4,12.4,0,0,1-4.077,1.678" transform="translate(-8.003 -14.108)" fill="none" stroke="#039" stroke-linecap="round" stroke-linejoin="round" stroke-width="1.5"/>
      <path id="Path_11297" data-name="Path 11297" d="M49.8,56.908a12.373,12.373,0,0,1-1.67,4.053" transform="translate(-10.135 -11.983)" fill="none" stroke="#039" stroke-linecap="round" stroke-linejoin="round" stroke-width="1.5"/>
      <path id="Path_11298" data-name="Path 11298" d="M48.118,44.7A12.564,12.564,0,0,1,49.8,48.759" transform="translate(-10.132 -9.412)" fill="none" stroke="#039" stroke-linecap="round" stroke-linejoin="round" stroke-width="1.5"/>
      <path id="Path_11299" data-name="Path 11299" d="M38.01,37.605A12.1,12.1,0,0,1,42.1,39.3" transform="translate(-8.003 -7.918)" fill="none" stroke="#039" stroke-linecap="round" stroke-linejoin="round" stroke-width="1.5"/>
      <path id="Path_11300" data-name="Path 11300" d="M25.827,39.31a12.668,12.668,0,0,1,4.064-1.689" transform="translate(-5.438 -7.922)" fill="none" stroke="#039" stroke-linecap="round" stroke-linejoin="round" stroke-width="1.5"/>
      <path id="Path_11301" data-name="Path 11301" d="M18.74,48.789a12.666,12.666,0,0,1,1.7-4.106" transform="translate(-3.946 -9.409)" fill="none" stroke="#039" stroke-linecap="round" stroke-linejoin="round" stroke-width="1.5"/>
      <path id="Path_11302" data-name="Path 11302" d="M36.519,36.587V33.593a.792.792,0,0,0-.848-.72H31.858a.792.792,0,0,0-.848.72v3.013" transform="translate(-6.53 -6.922)" fill="none" stroke="#039" stroke-linecap="round" stroke-linejoin="round" stroke-width="1.5"/>
      <path id="Path_11303" data-name="Path 11303" d="M31.011,69.185v2.973a.792.792,0,0,0,.848.72h3.814a.792.792,0,0,0,.848-.72v-3.01" transform="translate(-6.53 -14.56)" fill="none" stroke="#039" stroke-linecap="round" stroke-linejoin="round" stroke-width="1.5"/>
      <path id="Path_11304" data-name="Path 11304" d="M17.67,49.884h-2.9a.811.811,0,0,0-.767.848v3.814a.811.811,0,0,0,.767.848h2.9" transform="translate(-2.948 -10.504)" fill="none" stroke="#039" stroke-linecap="round" stroke-linejoin="round" stroke-width="1.5"/>
      <path id="Path_11305" data-name="Path 11305" d="M50.29,55.392h3a.792.792,0,0,0,.72-.848V50.731a.792.792,0,0,0-.72-.848H50.309" transform="translate(-10.589 -10.504)" fill="none" stroke="#039" stroke-linecap="round" stroke-linejoin="round" stroke-width="1.5"/>
      <path id="Path_11306" data-name="Path 11306" d="M24.142,39.118l-2.1-2.1a.8.8,0,0,0-1.119.079l-2.7,2.7a.782.782,0,0,0-.051,1.13l2.049,2.049" transform="translate(-3.781 -7.754)" fill="none" stroke="#039" stroke-linecap="round" stroke-linejoin="round" stroke-width="1.5"/>
      <path id="Path_11307" data-name="Path 11307" d="M43.232,66l2.082,2.082a.8.8,0,0,0,1.119-.079l2.7-2.7a.8.8,0,0,0,.078-1.12l-2.071-2.072" transform="translate(-9.103 -13.08)" fill="none" stroke="#039" stroke-linecap="round" stroke-linejoin="round" stroke-width="1.5"/>
      <path id="Path_11308" data-name="Path 11308" d="M20.24,62.019l-2.1,2.15a.8.8,0,0,0,.078,1.12l2.7,2.7a.8.8,0,0,0,1.12.078l2.089-2.137" transform="translate(-3.78 -13.059)" fill="none" stroke="#039" stroke-linecap="round" stroke-linejoin="round" stroke-width="1.5"/>
      <path id="Path_11309" data-name="Path 11309" d="M47.165,42.963l2.05-2.05a.8.8,0,0,0-.079-1.12l-2.7-2.7a.8.8,0,0,0-1.12-.078l-2.06,2.059" transform="translate(-9.109 -7.754)" fill="none" stroke="#039" stroke-linecap="round" stroke-linejoin="round" stroke-width="1.5"/>
      <circle id="Ellipse_17" data-name="Ellipse 17" cx="5.854" cy="5.854" r="5.854" transform="translate(21.382 36.281)" fill="none" stroke="#039" stroke-linecap="round" stroke-linejoin="round" stroke-width="1.5"/>
    </g>
  </g>
</svg>
